<svg id="svg" version="1.1" xmlns="http://www.w3.org/2000/svg" xmlns:xlink="http://www.w3.org/1999/xlink" width="400" height="400.27266530334015" viewBox="0, 0, 400,400.27266530334015"><g id="svgg"><path id="path0" d="M18.295 11.193 C 13.520 12.443,10.070 16.300,9.283 21.268 C 8.876 23.834,8.889 228.358,9.296 231.032 C 10.068 236.106,13.456 239.831,18.565 241.226 C 20.188 241.670,23.156 241.709,59.850 241.770 C 81.595 241.806,101.133 241.840,103.267 241.845 L 107.147 241.854 107.226 247.921 L 107.305 253.988 107.367 247.785 L 107.430 241.581 118.200 241.581 L 128.971 241.581 129.038 315.133 L 129.106 388.684 129.175 315.269 C 129.213 274.891,129.336 241.851,129.448 241.848 C 129.561 241.845,158.855 241.832,194.547 241.820 L 259.441 241.798 259.578 315.241 L 259.715 388.684 259.783 315.133 L 259.850 241.581 270.348 241.581 L 280.845 241.581 280.903 245.876 L 280.960 250.170 281.107 246.001 L 281.254 241.831 330.470 241.762 C 376.292 241.698,379.798 241.661,381.302 241.219 C 386.061 239.823,389.364 236.392,390.328 231.842 C 390.804 229.598,390.936 24.046,390.463 21.162 C 389.644 16.157,385.791 12.053,380.949 11.027 C 377.634 10.324,20.989 10.487,18.295 11.193 M372.796 18.596 C 376.182 19.806,378.822 22.167,380.337 25.340 L 381.322 27.403 381.392 125.556 C 381.455 214.784,381.422 223.845,381.026 225.207 C 379.833 229.311,376.942 232.319,372.896 233.665 L 371.227 234.221 199.451 234.152 L 27.676 234.083 26.082 233.441 C 23.125 232.248,20.257 229.354,19.016 226.312 L 18.405 224.813 18.333 127.062 C 18.283 58.016,18.348 28.894,18.555 27.888 C 19.584 22.906,24.139 18.744,29.175 18.187 C 32.989 17.766,371.600 18.169,372.796 18.596 M101.568 78.407 C 101.268 78.476,100.348 78.669,99.523 78.836 C 92.326 80.288,89.695 88.129,94.730 93.123 C 96.653 95.031,98.097 95.677,103.853 97.202 C 109.545 98.709,110.429 99.320,110.429 101.740 C 110.429 107.543,100.095 107.595,97.749 101.804 C 97.001 99.957,96.931 99.932,93.388 100.272 L 91.207 100.481 91.279 101.838 C 91.854 112.591,111.469 115.311,116.109 105.282 C 118.951 99.138,115.438 93.718,107.157 91.467 C 99.604 89.414,98.160 88.660,98.160 86.772 C 98.160 82.362,107.985 82.570,109.315 87.008 L 109.633 88.071 112.796 88.071 L 115.959 88.071 115.808 86.609 C 115.432 82.961,112.876 80.172,108.804 78.964 C 107.330 78.527,102.619 78.164,101.568 78.407 M134.695 87.508 C 133.366 87.912,132.093 88.689,130.948 89.793 L 129.789 90.911 129.789 89.355 L 129.789 87.798 126.926 87.798 L 124.063 87.798 124.063 103.749 L 124.063 119.700 127.062 119.700 L 130.061 119.700 130.061 113.974 C 130.061 110.825,130.139 108.248,130.233 108.248 C 130.327 108.248,130.895 108.691,131.495 109.233 C 137.118 114.314,145.337 110.131,146.478 101.608 C 147.694 92.517,141.722 85.370,134.695 87.508 M159.990 87.766 C 150.217 90.995,149.126 105.522,158.315 110.063 C 169.251 115.468,180.167 103.749,174.298 92.904 C 171.865 88.408,165.243 86.030,159.990 87.766 M192.572 87.815 C 191.785 88.126,190.466 88.998,189.641 89.753 L 188.139 91.125 188.139 89.462 L 188.139 87.798 185.412 87.798 L 182.686 87.798 182.686 99.387 L 182.686 110.975 185.666 110.975 L 188.646 110.975 188.734 103.272 C 188.845 93.380,189.336 92.200,193.446 91.938 C 197.194 91.699,197.682 93.046,197.682 103.626 L 197.682 110.975 200.701 110.975 L 203.719 110.975 203.622 101.636 C 203.518 91.640,203.496 91.477,202.043 89.630 C 200.382 87.518,195.626 86.607,192.572 87.815 M216.590 87.537 C 211.643 88.516,209.090 93.472,211.454 97.506 C 212.642 99.532,214.293 100.347,220.283 101.860 C 224.404 102.901,225.222 103.308,225.222 104.319 C 225.222 107.809,218.096 108.099,216.289 104.682 C 215.938 104.019,215.566 103.479,215.460 103.482 C 214.527 103.506,209.914 104.272,209.824 104.417 C 209.584 104.807,211.018 107.380,212.032 108.377 C 217.106 113.366,229.159 111.782,230.890 105.899 C 232.398 100.772,230.118 98.313,221.939 96.248 C 217.497 95.127,216.532 94.717,216.317 93.860 C 215.591 90.965,223.161 90.619,224.432 93.489 C 224.704 94.105,224.944 94.292,225.352 94.207 C 225.655 94.143,226.876 93.901,228.066 93.667 C 230.683 93.154,230.598 93.230,230.009 91.924 C 228.301 88.136,222.744 86.319,216.590 87.537 M245.671 87.624 C 238.930 89.459,235.378 97.185,238.034 104.235 C 241.755 114.110,256.960 113.538,260.377 103.394 C 263.575 93.903,255.280 85.008,245.671 87.624 M276.206 87.754 C 275.683 88.030,274.826 88.829,274.301 89.530 L 273.347 90.805 273.265 89.302 L 273.183 87.798 270.334 87.798 L 267.485 87.798 267.485 99.387 L 267.485 110.975 270.444 110.975 L 273.402 110.975 273.560 104.090 C 273.737 96.371,274.014 94.812,275.446 93.473 C 276.409 92.574,278.398 92.414,279.772 93.124 C 280.694 93.601,280.571 93.779,281.819 90.166 L 282.461 88.308 281.312 87.786 C 279.812 87.105,277.463 87.091,276.206 87.754 M291.591 87.562 C 286.170 88.782,283.899 94.957,287.535 98.592 C 288.872 99.929,290.345 100.529,295.822 101.969 C 300.587 103.221,301.567 104.184,299.836 105.915 C 297.710 108.041,292.568 107.148,291.348 104.442 C 291.001 103.672,290.714 103.370,290.413 103.457 C 290.175 103.527,288.937 103.727,287.662 103.903 C 284.897 104.284,284.812 104.343,285.315 105.541 C 288.944 114.177,305.597 113.048,306.407 104.111 C 306.789 99.903,304.863 98.271,297.108 96.228 C 292.030 94.892,291.639 94.710,291.534 93.645 C 291.271 90.958,298.117 90.743,299.545 93.393 C 299.922 94.094,300.183 94.292,300.602 94.195 C 300.908 94.124,302.128 93.885,303.312 93.664 C 305.896 93.182,305.762 93.294,305.246 92.060 C 303.615 88.155,297.666 86.196,291.591 87.562 M137.941 92.792 C 141.683 95.268,141.203 104.585,137.248 106.237 C 133.306 107.884,130.191 104.673,130.205 98.978 C 130.219 93.206,133.999 90.183,137.941 92.792 M166.147 92.534 C 170.484 94.347,170.912 103.077,166.789 105.626 C 162.588 108.223,158.316 105.008,158.316 99.250 C 158.316 93.966,162.004 90.803,166.147 92.534 M252.184 93.093 C 256.061 95.780,255.661 103.757,251.543 105.858 C 246.595 108.384,241.977 102.766,243.761 96.392 C 244.810 92.646,249.109 90.962,252.184 93.093 M138.927 139.938 C 137.632 143.151,127.252 169.800,127.132 170.220 C 127.004 170.670,127.241 170.700,130.358 170.629 L 133.723 170.552 134.618 168.098 C 135.110 166.748,135.708 165.121,135.947 164.480 L 136.381 163.317 142.829 163.390 L 149.277 163.463 150.644 167.071 L 152.011 170.680 155.484 170.684 L 158.956 170.688 158.412 169.257 C 158.113 168.470,155.254 161.322,152.060 153.374 L 146.251 138.923 142.824 138.847 L 139.398 138.771 138.927 139.938 M164.417 154.738 L 164.417 170.688 167.416 170.688 L 170.416 170.688 170.417 163.531 C 170.420 153.265,171.420 151.152,176.035 151.673 C 179.066 152.014,179.356 153.049,179.391 163.667 L 179.414 170.688 182.436 170.688 L 185.458 170.688 185.342 161.759 C 185.268 155.999,185.114 152.479,184.908 151.844 C 183.245 146.703,175.998 145.394,171.426 149.408 L 170.416 150.295 170.416 144.541 L 170.416 138.787 167.416 138.787 L 164.417 138.787 164.417 154.738 M262.304 144.376 C 262.304 147.451,262.244 149.966,262.170 149.966 C 262.096 149.966,261.467 149.531,260.771 149.000 C 255.140 144.702,247.796 147.670,246.083 154.937 C 243.272 166.856,253.932 176.259,261.460 168.501 L 262.577 167.351 262.577 169.020 L 262.577 170.688 265.440 170.688 L 268.303 170.688 268.303 154.738 L 268.303 138.787 265.303 138.787 L 262.304 138.787 262.304 144.376 M144.665 151.203 C 145.662 153.897,146.644 156.561,146.846 157.123 L 147.215 158.146 142.865 158.146 C 139.469 158.146,138.514 158.068,138.514 157.790 C 138.514 157.191,142.604 146.057,142.764 146.218 C 142.812 146.266,143.667 148.509,144.665 151.203 M199.924 147.239 C 193.135 148.677,189.567 158.021,193.004 165.364 C 196.594 173.037,208.573 173.295,212.406 165.781 C 213.130 164.363,213.301 164.490,209.883 163.908 L 207.016 163.419 206.449 164.588 C 204.546 168.505,198.657 166.643,198.024 161.925 L 197.883 160.873 205.554 160.873 L 213.224 160.873 213.224 159.007 C 213.224 150.898,207.318 145.673,199.924 147.239 M226.101 147.251 C 223.098 147.790,221.132 149.291,219.870 152.008 C 219.118 153.626,219.032 153.559,222.520 154.093 C 224.411 154.382,224.796 154.378,224.900 154.065 C 226.087 150.505,232.648 150.800,233.058 154.432 C 233.218 155.858,233.540 155.708,227.466 157.052 C 221.888 158.286,220.507 159.050,219.326 161.554 C 218.152 164.043,218.737 167.511,220.622 169.244 C 223.465 171.857,230.002 171.664,232.609 168.889 C 233.443 168.001,233.551 168.047,233.947 169.461 L 234.290 170.688 237.254 170.688 C 238.884 170.688,240.218 170.654,240.218 170.611 C 240.218 170.568,239.955 169.801,239.633 168.907 C 239.096 167.411,239.044 166.676,238.990 159.782 C 238.926 151.495,238.847 151.015,237.262 149.351 C 235.435 147.431,230.386 146.482,226.101 147.251 M204.783 152.230 C 206.144 152.950,207.226 154.683,207.226 156.144 L 207.226 157.055 202.590 157.055 C 197.506 157.055,197.745 157.153,198.256 155.283 C 199.116 152.134,202.027 150.773,204.783 152.230 M258.841 151.970 C 262.154 153.355,263.430 160.387,261.034 164.054 C 258.627 167.737,253.472 166.819,252.202 162.481 C 250.328 156.079,254.159 150.014,258.841 151.970 M233.075 161.650 C 232.877 165.066,231.211 166.871,228.258 166.871 C 224.170 166.871,223.302 162.132,227.188 161.030 C 229.104 160.487,232.659 159.565,232.959 159.534 C 233.091 159.520,233.143 160.472,233.075 161.650 M280.979 322.972 C 280.979 358.064,281.011 372.379,281.050 354.784 C 281.088 337.188,281.088 308.477,281.050 290.980 C 281.011 273.484,280.979 287.880,280.979 322.972 M107.249 376.551 C 107.249 377.676,107.297 378.136,107.356 377.573 C 107.415 377.011,107.415 376.091,107.356 375.528 C 107.297 374.966,107.249 375.426,107.249 376.551 " stroke="none" fill="#f5f5f5" fill-rule="evenodd"></path><path id="path1" d="M27.608 18.690 C 23.528 19.788,20.586 22.512,19.004 26.653 L 18.405 28.221 18.329 124.608 C 18.283 183.377,18.354 221.833,18.509 223.143 C 19.094 228.055,22.241 231.905,27.036 233.575 C 28.998 234.259,369.874 234.386,372.324 233.704 C 376.199 232.626,379.203 229.801,380.737 225.796 L 381.322 224.267 381.397 127.471 C 381.449 60.258,381.384 30.092,381.183 28.766 C 380.428 23.782,376.941 19.914,372.114 18.703 C 369.627 18.079,29.924 18.066,27.608 18.690 M107.697 78.527 C 111.626 79.272,114.588 81.689,115.604 84.979 C 116.557 88.064,116.610 87.987,113.341 88.210 C 109.771 88.454,109.632 88.419,109.209 87.187 C 108.427 84.907,107.199 84.032,104.429 83.781 C 101.068 83.476,98.432 84.773,98.432 86.732 C 98.432 88.619,99.616 89.323,105.249 90.787 C 114.572 93.209,117.236 95.756,116.915 101.939 C 116.572 108.513,111.738 111.847,103.127 111.445 C 95.953 111.111,92.067 107.912,90.924 101.401 L 90.751 100.417 92.342 100.250 C 93.217 100.159,94.687 100.004,95.609 99.908 L 97.284 99.732 97.482 100.650 C 98.712 106.342,107.458 107.987,110.046 103.013 C 111.439 100.337,109.960 98.999,103.756 97.320 C 94.666 94.861,92.051 92.612,92.051 87.253 C 92.051 80.701,98.931 76.864,107.697 78.527 M140.831 87.899 C 148.806 91.550,148.871 106.443,140.929 110.612 C 137.983 112.158,134.299 111.695,131.498 109.427 L 130.345 108.493 130.271 114.165 L 130.198 119.836 127.062 119.836 L 123.926 119.836 123.926 103.749 L 123.926 87.662 126.858 87.585 L 129.789 87.507 129.789 89.051 L 129.789 90.594 130.984 89.492 C 133.772 86.922,137.411 86.334,140.831 87.899 M166.480 87.278 C 174.212 88.703,178.321 97.369,174.806 104.840 C 170.106 114.832,154.540 113.284,152.276 102.599 C 150.234 92.964,157.107 85.551,166.480 87.278 M198.896 87.541 C 203.306 88.904,203.730 90.124,203.887 101.909 L 204.008 110.975 200.709 110.975 L 197.410 110.975 197.410 103.238 C 197.410 94.483,197.363 94.065,196.271 92.973 C 194.270 90.971,190.548 92.039,189.364 94.955 C 188.973 95.919,188.869 97.370,188.750 103.545 L 188.606 110.975 185.510 110.975 L 182.413 110.975 182.413 99.250 L 182.413 87.526 185.412 87.526 L 188.412 87.526 188.412 89.057 L 188.412 90.588 189.490 89.614 C 192.210 87.157,195.386 86.457,198.896 87.541 M225.440 87.692 C 227.801 88.461,231.377 92.443,230.462 93.285 C 229.833 93.864,224.837 94.422,224.553 93.946 C 223.271 91.790,221.034 91.078,218.105 91.891 C 214.298 92.949,215.799 94.526,222.127 96.120 C 229.920 98.083,232.293 100.425,231.243 105.119 C 229.454 113.113,214.226 113.967,210.337 106.291 C 209.250 104.147,209.311 104.105,214.451 103.466 L 215.815 103.296 216.365 104.477 C 217.846 107.652,224.624 107.792,224.894 104.653 C 225.008 103.333,224.750 103.188,220.132 101.982 C 212.468 99.982,210.489 98.400,210.504 94.285 C 210.524 88.542,217.963 85.258,225.440 87.692 M253.183 87.646 C 257.509 88.945,260.800 93.296,261.134 98.160 C 262.216 113.922,239.388 116.843,237.179 101.224 C 235.837 91.734,243.928 84.869,253.183 87.646 M280.810 87.404 C 282.663 87.954,282.704 88.140,281.635 91.166 L 280.733 93.720 279.630 93.219 C 277.303 92.162,275.391 92.934,274.465 95.303 C 274.002 96.490,273.921 97.558,273.816 103.817 L 273.697 110.975 270.591 110.975 L 267.485 110.975 267.485 99.250 L 267.485 87.526 270.348 87.526 L 273.211 87.526 273.219 89.093 L 273.228 90.661 273.825 89.843 C 275.784 87.161,277.718 86.486,280.810 87.404 M298.551 87.269 C 302.012 87.831,304.219 89.351,305.399 91.987 C 306.025 93.385,306.048 93.366,303.067 93.902 C 299.903 94.471,300.070 94.493,299.404 93.415 C 297.886 90.960,291.479 91.067,291.479 93.548 C 291.479 94.379,292.813 94.994,296.723 95.966 C 304.558 97.912,306.574 99.477,306.574 103.613 C 306.574 113.245,288.390 114.655,285.082 105.279 C 284.865 104.662,284.773 104.158,284.879 104.157 C 284.985 104.157,286.176 103.975,287.526 103.753 C 290.989 103.184,290.986 103.183,291.616 104.509 C 293.146 107.734,300.204 107.708,300.204 104.477 C 300.204 103.327,299.802 103.112,295.780 102.107 C 287.724 100.094,285.643 98.474,285.656 94.219 C 285.671 88.991,291.107 86.061,298.551 87.269 M132.919 92.823 C 129.262 95.016,129.356 103.222,133.067 105.743 C 136.612 108.152,140.267 104.932,140.270 99.396 C 140.274 93.559,136.829 90.479,132.919 92.823 M162.405 92.485 C 157.061 93.959,157.055 104.312,162.398 106.075 C 166.244 107.345,169.435 104.330,169.453 99.411 C 169.471 94.327,166.459 91.367,162.405 92.485 M247.757 92.441 C 241.695 94.258,242.280 105.567,248.471 106.265 C 251.917 106.653,254.312 104.234,254.597 100.077 C 254.958 94.812,251.759 91.241,247.757 92.441 M152.725 154.593 C 156.267 163.435,159.099 170.735,159.019 170.815 C 158.692 171.142,152.180 170.962,151.959 170.620 C 151.838 170.433,151.172 168.807,150.479 167.007 L 149.220 163.736 142.814 163.663 L 136.408 163.589 135.374 166.525 C 134.806 168.140,134.172 169.799,133.966 170.211 L 133.592 170.961 130.343 170.961 C 128.556 170.961,127.032 170.860,126.956 170.737 C 126.851 170.568,137.575 142.553,139.055 139.127 C 139.310 138.537,139.451 138.514,142.803 138.516 L 146.285 138.517 152.725 154.593 M170.416 144.362 L 170.416 150.211 171.438 149.267 C 175.058 145.924,181.773 146.290,184.101 149.957 C 185.335 151.900,185.409 152.586,185.411 162.040 L 185.412 170.979 182.345 170.902 L 179.277 170.825 179.141 162.372 C 178.975 152.076,178.900 151.875,175.215 151.875 C 171.274 151.875,170.580 153.556,170.458 163.403 L 170.365 170.979 167.323 170.902 L 164.281 170.825 164.211 154.669 L 164.140 138.514 167.278 138.514 L 170.416 138.514 170.416 144.362 M268.303 154.738 L 268.303 170.961 265.440 170.961 L 262.577 170.961 262.577 169.268 L 262.577 167.576 261.418 168.709 C 253.266 176.684,242.233 165.737,246.260 153.670 C 248.460 147.078,255.876 144.774,261.145 149.045 L 262.031 149.763 262.031 144.139 L 262.031 138.514 265.167 138.514 L 268.303 138.514 268.303 154.738 M140.646 152.066 L 138.591 157.737 140.747 157.816 C 141.932 157.860,143.802 157.860,144.901 157.816 L 146.900 157.737 144.800 152.066 L 142.701 146.395 140.646 152.066 M206.031 147.370 C 210.377 148.660,212.991 152.594,213.408 158.468 L 213.579 160.873 205.810 160.873 L 198.041 160.873 198.222 162.031 C 198.956 166.728,204.967 168.366,206.448 164.273 C 206.841 163.186,206.817 163.189,210.089 163.746 C 213.516 164.330,213.349 164.189,212.533 165.799 C 208.198 174.353,194.517 172.796,192.104 163.474 C 189.414 153.079,196.738 144.610,206.031 147.370 M235.174 147.744 C 238.756 149.361,238.930 149.892,239.134 159.782 C 239.286 167.143,239.349 167.944,239.880 169.227 C 240.611 170.996,240.662 170.961,237.343 170.961 C 234.306 170.961,234.076 170.859,233.778 169.367 C 233.568 168.315,233.679 168.309,232.076 169.461 C 228.006 172.384,221.730 171.714,219.507 168.117 C 216.686 163.552,219.474 158.507,225.476 157.318 C 226.311 157.152,228.313 156.708,229.925 156.331 L 232.856 155.644 232.856 154.556 C 232.856 151.358,226.965 150.627,225.350 153.626 C 225.061 154.162,224.761 154.603,224.682 154.606 C 223.516 154.641,219.223 153.612,219.223 153.297 C 219.223 152.520,220.978 149.635,221.930 148.846 C 224.301 146.883,231.872 146.253,235.174 147.744 M200.381 152.490 C 199.339 153.183,198.228 155.146,198.228 156.295 L 198.228 157.055 202.757 157.055 L 207.286 157.055 207.102 156.033 C 206.457 152.455,203.098 150.685,200.381 152.490 M255.078 152.177 C 249.608 155.359,251.581 167.031,257.456 166.243 C 262.250 165.600,263.949 155.611,259.770 152.636 C 258.783 151.933,255.971 151.658,255.078 152.177 M229.793 160.480 C 225.708 161.476,224.949 162.020,224.949 163.953 C 224.949 167.466,231.026 167.723,232.469 164.272 C 232.869 163.314,233.014 159.762,232.652 159.808 C 232.539 159.822,231.253 160.124,229.793 160.480 " stroke="none" fill="#338444" fill-rule="evenodd"></path><path id="path2" d="M107.703 315.283 C 107.703 372.243,107.777 389.059,108.030 389.312 C 108.585 389.867,127.981 389.771,128.542 389.210 C 128.930 388.823,128.971 381.727,128.971 315.182 L 128.971 241.581 118.337 241.581 L 107.703 241.581 107.703 315.283 M259.850 315.182 C 259.850 381.727,259.891 388.823,260.279 389.210 C 260.839 389.771,279.690 389.867,280.245 389.312 C 280.498 389.059,280.573 372.243,280.573 315.283 L 280.573 241.581 270.211 241.581 L 259.850 241.581 259.850 315.182 " stroke="none" fill="#939493" fill-rule="evenodd"></path><path id="path3" d="M115.019 18.200 C 161.858 18.238,238.423 18.238,285.162 18.200 C 331.902 18.162,293.579 18.131,200.000 18.131 C 106.421 18.131,68.180 18.162,115.019 18.200 M219.700 87.173 C 220.037 87.238,220.590 87.238,220.927 87.173 C 221.264 87.108,220.988 87.054,220.314 87.054 C 219.639 87.054,219.363 87.108,219.700 87.173 M294.956 87.173 C 295.293 87.238,295.845 87.238,296.183 87.173 C 296.520 87.108,296.244 87.054,295.569 87.054 C 294.894 87.054,294.618 87.108,294.956 87.173 M125.504 87.727 C 126.372 87.782,127.722 87.781,128.503 87.726 C 129.285 87.671,128.575 87.627,126.926 87.628 C 125.276 87.628,124.636 87.673,125.504 87.727 M182.541 87.857 C 182.468 88.050,182.440 93.361,182.481 99.659 L 182.556 111.111 182.621 99.455 L 182.686 87.798 185.399 87.798 L 188.113 87.798 188.217 89.502 L 188.321 91.207 188.298 89.434 L 188.275 87.662 185.476 87.584 C 183.388 87.526,182.642 87.596,182.541 87.857 M268.926 87.727 C 269.794 87.782,271.144 87.781,271.925 87.726 C 272.707 87.671,271.997 87.627,270.348 87.628 C 268.698 87.628,268.058 87.673,268.926 87.727 M110.089 88.263 C 110.426 88.328,110.978 88.328,111.316 88.263 C 111.653 88.198,111.377 88.145,110.702 88.145 C 110.027 88.145,109.751 88.198,110.089 88.263 M240.337 90.593 L 239.536 91.479 240.423 90.678 C 240.910 90.238,241.309 89.839,241.309 89.792 C 241.309 89.582,241.084 89.767,240.337 90.593 M256.851 89.792 C 256.851 89.839,257.249 90.238,257.737 90.678 L 258.623 91.479 257.822 90.593 C 257.076 89.767,256.851 89.582,256.851 89.792 M134.904 92.081 C 135.244 92.146,135.734 92.144,135.995 92.076 C 136.256 92.007,135.978 91.954,135.378 91.957 C 134.778 91.960,134.565 92.016,134.904 92.081 M93.797 92.519 C 93.797 92.566,94.196 92.965,94.683 93.405 L 95.569 94.206 94.768 93.320 C 94.022 92.494,93.797 92.308,93.797 92.519 M197.478 96.660 C 197.481 97.260,197.537 97.473,197.603 97.134 C 197.668 96.795,197.665 96.304,197.597 96.043 C 197.529 95.782,197.475 96.060,197.478 96.660 M151.959 99.114 C 151.961 100.014,152.011 100.349,152.072 99.859 C 152.133 99.369,152.132 98.633,152.069 98.223 C 152.007 97.813,151.958 98.214,151.959 99.114 M261.028 99.250 C 261.028 100.225,261.077 100.624,261.138 100.136 C 261.198 99.649,261.198 98.851,261.138 98.364 C 261.077 97.877,261.028 98.275,261.028 99.250 M158.220 99.250 C 158.220 99.925,158.273 100.201,158.338 99.864 C 158.403 99.526,158.403 98.974,158.338 98.637 C 158.273 98.299,158.220 98.575,158.220 99.250 M254.744 99.250 C 254.744 99.925,254.797 100.201,254.862 99.864 C 254.927 99.526,254.927 98.974,254.862 98.637 C 254.797 98.299,254.744 98.575,254.744 99.250 M95.978 99.900 C 95.978 99.958,96.285 100.063,96.660 100.135 C 97.035 100.207,97.342 100.160,97.342 100.030 C 97.342 99.901,97.035 99.796,96.660 99.796 C 96.285 99.796,95.978 99.843,95.978 99.900 M273.598 105.658 C 273.598 108.657,273.637 109.921,273.686 108.467 C 273.735 107.013,273.736 104.559,273.687 103.014 C 273.638 101.469,273.598 102.658,273.598 105.658 M220.382 107.073 C 220.644 107.141,221.074 107.141,221.336 107.073 C 221.599 107.004,221.384 106.948,220.859 106.948 C 220.334 106.948,220.119 107.004,220.382 107.073 M295.637 107.073 C 295.900 107.141,296.329 107.141,296.592 107.073 C 296.854 107.004,296.639 106.948,296.115 106.948 C 295.590 106.948,295.375 107.004,295.637 107.073 M257.515 108.044 L 256.714 108.930 257.601 108.129 C 258.088 107.688,258.487 107.290,258.487 107.243 C 258.487 107.032,258.262 107.218,257.515 108.044 M130.124 114.042 L 130.186 119.836 130.266 114.166 C 130.324 110.025,130.429 108.547,130.654 108.687 C 130.844 108.804,130.888 108.756,130.769 108.563 C 130.187 107.621,130.066 108.650,130.124 114.042 M136.405 111.443 C 136.819 111.506,137.433 111.504,137.768 111.439 C 138.103 111.375,137.764 111.323,137.014 111.325 C 136.264 111.327,135.990 111.380,136.405 111.443 M163.263 111.445 C 163.753 111.506,164.490 111.504,164.899 111.442 C 165.309 111.380,164.908 111.330,164.008 111.332 C 163.108 111.333,162.773 111.384,163.263 111.445 M219.707 111.447 C 220.349 111.505,221.330 111.504,221.889 111.446 C 222.447 111.387,221.922 111.340,220.723 111.341 C 219.523 111.342,219.066 111.390,219.707 111.447 M248.330 111.445 C 248.817 111.505,249.615 111.505,250.102 111.445 C 250.590 111.384,250.191 111.335,249.216 111.335 C 248.241 111.335,247.843 111.384,248.330 111.445 M294.963 111.447 C 295.604 111.505,296.586 111.504,297.144 111.446 C 297.703 111.387,297.178 111.340,295.978 111.341 C 294.778 111.342,294.322 111.390,294.963 111.447 M140.423 138.695 C 143.398 138.894,146.361 138.906,146.244 138.718 C 146.174 138.606,144.559 138.536,142.656 138.563 C 140.753 138.590,139.748 138.649,140.423 138.695 M164.210 154.669 L 164.276 170.825 164.349 154.815 L 164.422 138.804 167.487 138.718 L 170.552 138.631 167.348 138.572 L 164.145 138.514 164.210 154.669 M262.094 144.308 L 262.156 150.102 262.236 144.453 L 262.315 138.804 265.377 138.717 L 268.439 138.631 265.235 138.572 L 262.031 138.514 262.094 144.308 M179.260 163.463 C 179.260 167.512,179.298 169.206,179.345 167.228 C 179.391 165.250,179.391 161.937,179.345 159.866 C 179.299 157.795,179.261 159.414,179.260 163.463 M140.627 158.076 C 141.864 158.127,143.889 158.127,145.126 158.076 C 146.363 158.026,145.351 157.984,142.877 157.984 C 140.402 157.984,139.390 158.026,140.627 158.076 M262.109 159.100 C 262.111 159.850,262.164 160.124,262.227 159.710 C 262.290 159.295,262.288 158.682,262.223 158.347 C 262.159 158.011,262.107 158.350,262.109 159.100 M213.302 159.646 C 213.304 160.395,213.357 160.670,213.420 160.255 C 213.483 159.841,213.481 159.227,213.416 158.892 C 213.351 158.557,213.300 158.896,213.302 159.646 M238.952 162.372 C 238.951 163.722,238.997 164.308,239.054 163.676 C 239.111 163.043,239.112 161.938,239.056 161.222 C 238.999 160.505,238.952 161.022,238.952 162.372 M139.552 163.530 C 141.398 163.578,144.343 163.577,146.096 163.530 C 147.850 163.483,146.339 163.444,142.740 163.444 C 139.141 163.444,137.706 163.483,139.552 163.530 M248.125 167.774 C 248.125 167.821,248.524 168.220,249.012 168.661 L 249.898 169.461 249.097 168.575 C 248.350 167.749,248.125 167.564,248.125 167.774 M107.564 315.201 C 107.564 355.767,107.596 372.362,107.635 352.079 C 107.673 331.796,107.673 298.606,107.635 278.323 C 107.596 258.040,107.564 274.635,107.564 315.201 M280.707 315.065 C 280.707 355.556,280.739 372.161,280.777 351.965 C 280.816 331.769,280.816 298.640,280.777 278.345 C 280.739 258.050,280.707 274.574,280.707 315.065 M113.224 389.843 C 115.736 389.888,119.847 389.888,122.359 389.843 C 124.870 389.798,122.815 389.761,117.791 389.761 C 112.768 389.761,110.712 389.798,113.224 389.843 M265.508 389.843 C 268.095 389.888,272.328 389.888,274.915 389.843 C 277.502 389.798,275.385 389.761,270.211 389.761 C 265.037 389.761,262.921 389.798,265.508 389.843 " stroke="none" fill="#94c1a4" fill-rule="evenodd"></path><path id="path4" d="M123.923 103.749 L 123.926 119.836 126.994 119.850 L 130.062 119.864 127.065 119.773 L 124.067 119.682 123.993 103.672 L 123.920 87.662 123.923 103.749 M112.134 88.259 C 112.396 88.327,112.825 88.327,113.088 88.259 C 113.350 88.190,113.136 88.134,112.611 88.134 C 112.086 88.134,111.871 88.190,112.134 88.259 M203.802 102.931 C 203.802 107.430,203.839 109.309,203.885 107.106 C 203.931 104.903,203.931 101.222,203.885 98.926 C 203.839 96.630,203.802 98.432,203.802 102.931 M188.748 98.432 C 188.748 98.957,188.804 99.172,188.872 98.909 C 188.941 98.647,188.941 98.217,188.872 97.955 C 188.804 97.693,188.748 97.907,188.748 98.432 M197.528 104.294 C 197.528 108.044,197.566 109.615,197.613 107.787 C 197.660 105.958,197.660 102.891,197.614 100.970 C 197.567 99.049,197.528 100.545,197.528 104.294 M237.031 99.114 C 237.032 100.014,237.083 100.349,237.144 99.859 C 237.204 99.369,237.203 98.633,237.141 98.223 C 237.079 97.813,237.029 98.214,237.031 99.114 M130.136 98.978 C 130.136 99.652,130.189 99.928,130.254 99.591 C 130.319 99.254,130.319 98.701,130.254 98.364 C 130.189 98.027,130.136 98.303,130.136 98.978 M306.539 103.613 C 306.539 104.138,306.595 104.352,306.664 104.090 C 306.732 103.828,306.732 103.398,306.664 103.136 C 306.595 102.873,306.539 103.088,306.539 103.613 M103.820 105.987 C 104.160 106.052,104.650 106.050,104.911 105.981 C 105.172 105.913,104.894 105.860,104.294 105.863 C 103.695 105.866,103.481 105.922,103.820 105.987 M228.429 151.795 C 228.768 151.860,229.259 151.857,229.519 151.789 C 229.780 151.721,229.502 151.668,228.903 151.671 C 228.303 151.674,228.089 151.730,228.429 151.795 M245.486 158.964 C 245.486 159.939,245.536 160.337,245.596 159.850 C 245.657 159.363,245.657 158.565,245.596 158.078 C 245.536 157.590,245.486 157.989,245.486 158.964 M232.925 160.736 C 232.928 161.336,232.984 161.549,233.049 161.210 C 233.114 160.871,233.112 160.380,233.044 160.120 C 232.975 159.859,232.922 160.136,232.925 160.736 M218.474 164.281 C 218.477 164.881,218.533 165.094,218.598 164.755 C 218.663 164.416,218.660 163.925,218.592 163.664 C 218.524 163.403,218.471 163.681,218.474 164.281 M155.556 170.688 L 152.011 170.850 155.471 170.905 C 157.546 170.939,158.999 170.852,159.100 170.688 C 159.193 170.539,159.231 170.441,159.184 170.471 C 159.138 170.502,157.505 170.600,155.556 170.688 M128.630 170.890 C 129.567 170.944,131.101 170.944,132.038 170.890 C 132.975 170.837,132.209 170.794,130.334 170.794 C 128.459 170.794,127.693 170.837,128.630 170.890 M165.849 170.890 C 166.711 170.944,168.122 170.944,168.984 170.890 C 169.847 170.836,169.141 170.792,167.416 170.792 C 165.692 170.792,164.986 170.836,165.849 170.890 M180.845 170.890 C 181.708 170.944,183.119 170.944,183.981 170.890 C 184.843 170.836,184.138 170.792,182.413 170.792 C 180.688 170.792,179.983 170.836,180.845 170.890 M235.934 170.890 C 236.801 170.945,238.151 170.944,238.933 170.889 C 239.715 170.834,239.005 170.790,237.355 170.790 C 235.706 170.791,235.066 170.836,235.934 170.890 M264.018 170.890 C 264.886 170.945,266.236 170.944,267.017 170.889 C 267.799 170.834,267.089 170.790,265.440 170.790 C 263.790 170.791,263.150 170.836,264.018 170.890 " stroke="none" fill="#61a175" fill-rule="evenodd"></path></g></svg>